# xmcd
#
# Track frame offsets: 
#        150
#        16060
#        29896
#        63286
#        80115
#        100313
#        112123
#        133229
#        149428
#        165485
#
# Disc length: 2459 seconds
#
# Revision: 0
# Processed by: cddbd v1.5.2PL0 Copyright (c) Steve Scherf et al.
# Submitted via: ExactAudioCopyFreeDBPlugin 1.0
#
DISCID=8f09990a
DTITLE=Antoni Krupa - Więc Wędrowałaś Tak ...
DYEAR=2019
DGENRE=Blues
TTITLE0=Little Wing
TTITLE1=Paint It Black
TTITLE2=Przepraszam
TTITLE3=Mgła
TTITLE4=Song For Gońki
TTITLE5=Nie zaznasz szczęścia
TTITLE6=Jenny
TTITLE7=Ostatni blues
TTITLE8=Balansujemy
TTITLE9=Little Wing
EXTD=
EXTT0=
EXTT1=
EXTT2=
EXTT3=
EXTT4=
EXTT5=
EXTT6=
EXTT7=
EXTT8=
EXTT9=
PLAYORDER=
